<svg width="132" height="32" viewBox="0 0 132 32" fill="none" xmlns="http://www.w3.org/2000/svg">
<g clip-path="url(#clip0_68_365)">
<path d="M63.2776 31.7166V26.8998H61.5116V26.1494H65.902V26.8998H64.1115V31.7166H63.2776Z" fill="#85754E"/>
<mask id="mask0_68_365" style="mask-type:luminance" maskUnits="userSpaceOnUse" x="-170" y="-115" width="472" height="262">
<path d="M301.265 -114.726H-169.657V146.692H301.265V-114.726Z" fill="white"/>
</mask>
<g mask="url(#mask0_68_365)">
<path d="M74.511 31.1605C74.071 31.5637 73.4927 31.7878 72.8922 31.7878C72.2917 31.7878 71.7135 31.5637 71.2734 31.1605C70.8586 30.6564 70.6487 30.0178 70.6848 29.3693V26.15H71.5187V29.3693C71.4927 29.803 71.623 30.2317 71.8866 30.5796C72.0059 30.7288 72.1591 30.8482 72.3338 30.9281C72.5085 31.008 72.6998 31.0461 72.8922 31.0395C73.0815 31.0483 73.27 31.011 73.4411 30.9307C73.6122 30.8505 73.7607 30.7299 73.8733 30.5796C74.1538 30.2393 74.2939 29.8071 74.2657 29.3693V26.15H75.0997V29.3693C75.1357 30.0178 74.9259 30.6564 74.511 31.1605ZM72.4998 25.3755C72.4579 25.4244 72.4051 25.463 72.3455 25.4882C72.2859 25.5134 72.2211 25.5245 72.1564 25.5207C72.027 25.5189 71.9036 25.4667 71.813 25.3755C71.7333 25.2801 71.6897 25.1603 71.6897 25.0366C71.6897 24.9129 71.7333 24.7931 71.813 24.6977C71.9036 24.6065 72.027 24.5543 72.1564 24.5525C72.2211 24.5487 72.2859 24.5598 72.3455 24.585C72.4051 24.6102 72.4579 24.6488 72.4998 24.6977C72.5474 24.7408 72.5854 24.7932 72.6113 24.8515C72.6373 24.9098 72.6507 24.9729 72.6507 25.0366C72.6507 25.1003 72.6373 25.1633 72.6113 25.2217C72.5854 25.28 72.5474 25.3324 72.4998 25.3755ZM73.9959 25.3755C73.9541 25.4244 73.9013 25.463 73.8417 25.4882C73.782 25.5134 73.7173 25.5245 73.6526 25.5207C73.5225 25.5207 73.3977 25.4697 73.3057 25.3789C73.2137 25.2881 73.162 25.165 73.162 25.0366C73.162 24.9082 73.2137 24.7851 73.3057 24.6943C73.3977 24.6035 73.5225 24.5525 73.6526 24.5525C73.7173 24.5487 73.782 24.5598 73.8417 24.585C73.9013 24.6102 73.9541 24.6488 73.9959 24.6977C74.0435 24.7408 74.0815 24.7932 74.1075 24.8515C74.1335 24.9098 74.1469 24.9729 74.1469 25.0366C74.1469 25.1003 74.1335 25.1633 74.1075 25.2217C74.0815 25.28 74.0435 25.3324 73.9959 25.3755Z" fill="#85754E"/>
<path d="M80.373 31.7176V26.1503H82.6296C82.8664 26.1369 83.1036 26.1707 83.327 26.2497C83.5503 26.3287 83.7552 26.4513 83.9295 26.6102C84.0961 26.7693 84.226 26.9619 84.3107 27.1749C84.3953 27.3879 84.4326 27.6163 84.42 27.8447C84.4333 28.1006 84.3915 28.3563 84.2974 28.5951C84.2158 28.79 84.0899 28.9639 83.9295 29.1034C83.8008 29.2314 83.6516 29.3377 83.488 29.4181C83.3405 29.4881 83.1836 29.5371 83.022 29.5633L84.5427 31.7176H83.5861L82.0654 29.5633H81.207V31.7176H80.373ZM81.207 28.8129H82.5314C82.8178 28.8258 83.0985 28.7306 83.3163 28.5467C83.4088 28.455 83.4806 28.345 83.5271 28.2241C83.5736 28.1031 83.5937 27.9739 83.5861 27.8447C83.5903 27.7196 83.5685 27.5949 83.5221 27.4784C83.4757 27.3618 83.4057 27.2559 83.3163 27.167C83.0985 26.983 82.8178 26.8878 82.5314 26.9007H81.207V28.8129Z" fill="#85754E"/>
<path d="M89.5461 31.7166V26.1494H90.3801V28.7394L92.7102 26.1494H93.7158L91.2385 28.8846L93.8384 31.7166H92.8328L90.3801 29.0541V31.7166H89.5461Z" fill="#85754E"/>
<path d="M99.1608 25.3755C99.119 25.4244 99.0662 25.463 99.0065 25.4882C98.9469 25.5134 98.8822 25.5245 98.8174 25.5207C98.6881 25.5189 98.5646 25.4667 98.4741 25.3755C98.3943 25.2801 98.3507 25.1603 98.3507 25.0366C98.3507 24.9129 98.3943 24.7931 98.4741 24.6977C98.5646 24.6065 98.6881 24.5543 98.8174 24.5525C98.8822 24.5487 98.9469 24.5598 99.0065 24.585C99.0662 24.6102 99.119 24.6488 99.1608 24.6977C99.2084 24.7408 99.2464 24.7932 99.2724 24.8515C99.2984 24.9098 99.3118 24.9729 99.3118 25.0366C99.3118 25.1003 99.2984 25.1633 99.2724 25.2217C99.2464 25.28 99.2084 25.3324 99.1608 25.3755ZM98.376 26.15H99.2344V31.7173H98.376V26.15Z" fill="#85754E"/>
<path d="M105.832 31.7166V29.635L103.845 26.1494H104.728L106.225 28.812H106.274L107.745 26.1494H108.628L106.666 29.635V31.7166H105.832Z" fill="#85754E"/>
<path d="M113.264 31.7166V26.1494H116.869V26.8998H114.098V28.5215H116.722V29.2719H114.098V30.9421H116.968V31.7166H113.264Z" fill="#85754E"/>
<path d="M58.6418 0.176758H46.8688V20.243H50.2045V13.3202H55.0363L59.4022 20.243H63.3756L58.9607 13.3202C62.0021 13.2234 63.4246 11.7227 63.4246 8.6002V4.89679C63.4246 1.67749 61.904 0.176758 58.6418 0.176758ZM60.0644 8.6002C60.0644 9.88309 59.7946 10.1735 58.6418 10.1735H50.2045V3.32345H58.6418C59.7946 3.32345 60.0644 3.61391 60.0644 4.89679V8.6002ZM131.61 7.1963V4.89679C131.61 1.67749 130.09 0.176758 126.827 0.176758H119.837C116.575 0.176758 115.054 1.67749 115.054 4.89679C115.054 8.52759 116.207 9.52001 119.69 10.6577L126.68 12.9814C128.029 13.4171 128.25 13.7801 128.25 15.5229C128.25 16.8058 127.98 17.0963 126.827 17.0963H119.837C118.66 17.0963 118.415 16.8058 118.415 15.5229V13.1992H115.054V15.5229C115.054 18.7422 116.575 20.243 119.837 20.243H126.827C130.09 20.243 131.61 18.7422 131.61 15.5229C131.61 11.8921 130.458 10.8997 126.975 9.73785L119.984 7.43835C118.635 7.00266 118.415 6.63958 118.415 4.89679C118.415 3.61391 118.66 3.32345 119.813 3.32345H126.827C127.98 3.32345 128.25 3.61391 128.25 4.89679V7.1963H131.61ZM78.6806 0.176758H74.1676L67.1773 20.243H70.7338L72.5733 14.9904H80.3239L82.188 20.243H85.7444L78.7051 0.273579L78.6806 0.176758ZM73.6525 11.8437L76.4241 3.90438L79.2202 11.8679L73.6525 11.8437ZM109.291 20.243V0.176758H104.238L99.5287 11.8679L94.7704 0.176758H89.7669V20.243H93.1026V4.58212L97.5175 15.4503H101.515L105.93 4.55792V20.243H109.291Z" fill="#004438"/>
<path d="M35.7335 0.104492H28.5961V3.63121H35.7335V0.104492Z" fill="#004438"/>
<path d="M35.758 7.17188H21.4586V10.6986H35.758V7.17188Z" fill="#004438"/>
<path d="M35.758 28.3271H-0.00268555V31.8539H35.758V28.3271Z" fill="#004438"/>
<path d="M35.758 21.2842H7.1593V24.8109H35.758V21.2842Z" fill="#004438"/>
<path d="M35.7579 14.2168H14.2966V17.7484H35.7579V14.2168Z" fill="#004438"/>
</g>
</g>
<defs>
<clipPath id="clip0_68_365">
<rect width="132" height="32" fill="white"/>
</clipPath>
</defs>
</svg>
