<svg width="24" height="24" viewBox="0 0 24 24" fill="none" xmlns="http://www.w3.org/2000/svg">
    <path d="M12.9466 21.3885C12.5505 21.6957 12.2188 21.9368 11.9826 22.1033C11.7485 21.9508 11.4226 21.7309 11.0346 21.4489C10.2135 20.8525 9.12077 19.9833 8.03068 18.8917C5.82727 16.6854 3.75 13.6873 3.75 10.2771C3.75 5.54598 7.46479 1.75 12 1.75C16.5353 1.75 20.25 5.54637 20.25 10.2776C20.25 13.416 18.1819 16.4122 15.9617 18.7007C14.8676 19.8285 13.7708 20.7493 12.9466 21.3885ZM7.90705 10.2766C7.90705 12.5724 9.71851 14.4724 12 14.4724C14.2814 14.4724 16.0929 12.5724 16.0929 10.2766C16.0929 7.98098 14.2814 6.08101 12 6.08101C9.71861 6.08101 7.90705 7.98098 7.90705 10.2766Z" stroke="white" stroke-width="1.5"/>
    </svg>
