<?xml version="1.0" standalone="no"?>
<!DOCTYPE svg PUBLIC "-//W3C//DTD SVG 20010904//EN"
 "http://www.w3.org/TR/2001/REC-SVG-20010904/DTD/svg10.dtd">
<svg version="1.0" xmlns="http://www.w3.org/2000/svg"
 width="180.000000pt" height="180.000000pt" viewBox="0 0 180.000000 180.000000"
 preserveAspectRatio="xMidYMid meet">
<metadata>
Created by potrace 1.14, written by Peter Selinger 2001-2017
</metadata>
<g transform="translate(0.000000,180.000000) scale(0.100000,-0.100000)"
fill="#000000" stroke="none">
<path d="M832 1653 c-38 -51 -40 -59 -35 -102 15 -110 5 -205 -27 -279 -11
-24 -18 -47 -16 -51 3 -4 20 -65 39 -136 30 -112 62 -205 70 -205 1 0 2 87 2
192 0 106 4 243 9 303 11 139 15 325 6 330 -4 2 -25 -21 -48 -52z"/>
<path d="M919 1608 c-1 -101 -4 -158 -14 -315 -8 -112 -1 -127 33 -70 30 50
43 95 57 197 8 60 11 80 21 123 5 23 -3 41 -38 93 -23 35 -46 64 -50 64 -5 0
-8 -42 -9 -92z"/>
<path d="M751 1527 c-23 -38 -71 -143 -71 -157 0 -5 14 -32 32 -60 35 -57 38
-55 60 30 14 52 17 204 6 216 -3 3 -15 -10 -27 -29z"/>
<path d="M1030 1539 c0 -3 -7 -52 -15 -110 -21 -138 -40 -194 -85 -243 l-37
-41 2 -90 c2 -49 3 -105 4 -124 1 -48 11 -33 37 57 12 42 43 113 67 157 25 45
57 122 72 177 l28 97 -28 53 c-25 50 -45 79 -45 67z"/>
<path d="M1100 1280 c-12 -41 -26 -79 -30 -85 -18 -23 -80 -149 -76 -153 11
-11 54 11 96 48 24 22 53 43 63 46 15 5 17 13 13 52 -8 68 -15 100 -30 135
l-13 32 -23 -75z"/>
<path d="M641 1247 c-15 -88 -14 -96 14 -137 23 -34 101 -88 111 -78 2 3 -2
26 -10 51 -8 26 -12 47 -11 47 6 0 -30 100 -51 143 -26 54 -40 47 -53 -26z"/>
<path d="M1115 1088 c-22 -18 -42 -35 -45 -39 -10 -12 -49 -29 -69 -29 -15 0
-23 -10 -30 -37 -34 -122 -33 -134 6 -127 69 13 137 66 168 132 19 38 32 132
19 132 -5 0 -27 -14 -49 -32z"/>
<path d="M630 1085 c0 -100 80 -203 171 -222 29 -6 32 -4 24 13 -4 10 -17 44
-28 75 -18 48 -26 58 -61 72 -47 20 -77 43 -94 72 -10 18 -11 18 -12 -10z"/>
<path d="M877 843 c-3 -5 2 -29 9 -54 11 -37 19 -48 40 -52 20 -4 24 -1 18 12
-8 20 -26 72 -30 89 -4 13 -30 17 -37 5z"/>
<path d="M1222 577 c-49 -22 -23 -77 37 -77 35 0 55 -19 40 -37 -15 -17 -50
-17 -76 2 -16 11 -24 12 -29 4 -11 -19 26 -39 71 -39 46 0 65 13 65 46 0 29
-22 45 -66 50 -43 4 -52 10 -36 26 9 9 21 9 49 0 41 -13 52 -9 34 12 -15 18
-62 25 -89 13z"/>
<path d="M467 573 c-2 -5 -3 -37 -2 -72 1 -68 21 -98 27 -40 4 46 40 48 65 2
9 -18 23 -33 30 -33 17 0 16 6 -3 35 -15 22 -15 26 0 40 19 19 20 29 6 56 -9
15 -22 19 -65 19 -29 0 -56 -3 -58 -7z m101 -36 c3 -14 -4 -17 -37 -17 -33 0
-41 3 -41 19 0 15 7 18 37 17 27 -1 39 -6 41 -19z"/>
<path d="M718 513 c-18 -37 -34 -71 -36 -75 -8 -18 24 -6 36 12 18 29 75 27
95 -2 8 -13 18 -20 22 -16 9 9 -56 140 -72 145 -6 2 -26 -26 -45 -64z m54 -15
c-18 -18 -33 0 -20 22 11 17 14 18 21 4 6 -10 5 -20 -1 -26z"/>
<path d="M930 504 c0 -56 3 -75 13 -72 6 3 12 21 13 41 1 50 9 54 30 18 10
-17 21 -31 24 -31 3 0 14 14 24 31 22 37 26 34 28 -20 2 -71 23 -41 25 37 2
86 -10 93 -52 31 l-27 -42 -27 42 c-39 62 -51 54 -51 -35z"/>
<path d="M95 285 c-17 -8 -36 -24 -43 -35 -19 -31 -17 -93 4 -128 33 -57 128
-67 171 -19 19 22 31 86 16 88 -42 4 -66 4 -76 -3 -16 -10 -6 -18 26 -20 59
-5 14 -68 -48 -68 -57 0 -98 71 -73 126 21 45 93 61 128 29 18 -16 40 -20 40
-7 0 5 -9 17 -19 26 -27 25 -89 30 -126 11z"/>
<path d="M685 291 c-2 -4 -3 -54 -3 -113 0 -86 3 -105 14 -101 9 3 14 21 14
49 l0 44 44 0 c41 0 44 -2 67 -44 13 -25 31 -47 41 -49 16 -5 15 2 -9 45 -27
50 -26 55 8 70 17 8 18 57 1 78 -16 20 -29 23 -96 25 -42 1 -78 -1 -81 -4z
m154 -35 c16 -20 -3 -56 -29 -57 -92 -5 -100 -2 -100 36 l0 35 59 0 c39 0 63
-5 70 -14z"/>
<path d="M999 293 c-14 -3 -16 -20 -16 -111 l1 -107 50 2 c28 0 61 2 74 2 13
1 37 14 53 30 24 24 29 38 29 76 0 38 -5 52 -29 76 -16 16 -35 29 -43 30 -55
4 -106 4 -119 2z m121 -36 c35 -18 52 -73 33 -110 -16 -32 -41 -43 -100 -45
l-43 -2 0 85 0 85 43 0 c23 0 53 -6 67 -13z"/>
<path d="M1296 290 c-2 -5 0 -200 3 -210 1 -4 145 -5 173 -1 4 1 5 7 3 13 -4
9 -29 13 -78 13 l-72 0 -2 38 -2 37 44 0 c32 0 45 4 45 14 0 10 -12 14 -40 12
-34 -1 -42 3 -46 21 -9 36 4 43 77 43 52 0 70 3 67 12 -3 9 -31 13 -87 13 -46
0 -84 -2 -85 -5z"/>
<path d="M1586 292 c-3 -3 -6 -52 -6 -109 0 -80 3 -103 14 -103 10 0 13 16 14
57 0 32 1 67 1 77 1 15 13 6 51 -36 27 -30 58 -65 68 -78 10 -13 23 -21 28
-18 5 4 8 46 7 95 -2 126 -2 123 -16 117 -10 -4 -13 -24 -12 -75 1 -46 -2 -68
-9 -66 -6 2 -39 35 -73 74 -34 39 -64 69 -67 65z"/>
<path d="M397 193 c-26 -54 -48 -103 -47 -110 0 -21 26 -4 36 25 9 25 13 27
69 27 58 0 61 -1 81 -34 14 -23 24 -30 29 -22 10 18 -86 211 -105 211 -9 0
-34 -39 -63 -97z m82 23 c29 -46 27 -52 -19 -54 -22 -1 -40 1 -40 5 0 7 33 83
36 83 1 0 12 -15 23 -34z"/>
</g>
</svg>
